# xmcd
#
# Track frame offsets: 
#        150
#        20714
#        36080
#        52553
#        65004
#        82733
#        99610
#        115613
#        129214
#        143242
#
# Disc length: 2144 seconds
#
# Revision: 0
# Processed by: cddbd v1.5.2PL0 Copyright (c) Steve Scherf et al.
# Submitted via: ExactAudioCopy v1.0b4
#
DISCID=76085e0a
DTITLE=Lipbone Redding - Esmeralda
DYEAR=2014
DGENRE=Blues Rock
TTITLE0=Esmeralda
TTITLE1=Child Of War
TTITLE2=Cowgirls Meet (On Guadalupe St.)
TTITLE3=St. Jame's Infirmary Blues
TTITLE4=Speaker In The Window
TTITLE5=Repo Girl
TTITLE6=Better Love Someone
TTITLE7=Law In Kansas
TTITLE8=Peter Tosh
TTITLE9=The Great Tornado
EXTD=
EXTT0=
EXTT1=
EXTT2=
EXTT3=
EXTT4=
EXTT5=
EXTT6=
EXTT7=
EXTT8=
EXTT9=
PLAYORDER=
